<svg width="19" height="20" viewBox="0 0 19 20" fill="none" xmlns="http://www.w3.org/2000/svg">
<g clip-path="url(#clip0_2442_1370)">
<path d="M6.94189 1.21533C6.23073 1.21494 5.53696 1.44849 4.95619 1.8838C4.37542 2.31912 3.93624 2.93476 3.69919 3.64589H0.0668945V6.07644H3.69919C3.93592 6.78803 4.37493 7.40422 4.95571 7.84007C5.53648 8.27592 6.23043 8.50998 6.94189 8.50998C7.65336 8.50998 8.34731 8.27592 8.92808 7.84007C9.50886 7.40422 9.94787 6.78803 10.1846 6.07644H18.4002V3.64589H10.1846C9.94755 2.93476 9.50837 2.31912 8.9276 1.8838C8.34683 1.44849 7.65306 1.21494 6.94189 1.21533ZM5.79606 4.86117C5.79606 4.53885 5.91678 4.22974 6.13167 4.00184C6.34655 3.77393 6.638 3.64589 6.94189 3.64589C7.24579 3.64589 7.53724 3.77393 7.75212 4.00184C7.96701 4.22974 8.08773 4.53885 8.08773 4.86117C8.08773 5.18348 7.96701 5.49259 7.75212 5.7205C7.53724 5.94841 7.24579 6.07644 6.94189 6.07644C6.638 6.07644 6.34655 5.94841 6.13167 5.7205C5.91678 5.49259 5.79606 5.18348 5.79606 4.86117ZM11.5252 10.9376C10.8141 10.9372 10.1203 11.1707 9.53952 11.606C8.95875 12.0413 8.51957 12.657 8.28252 13.3681H0.0668945V15.7987H8.28252C8.51925 16.5103 8.95826 17.1264 9.53904 17.5623C10.1198 17.9981 10.8138 18.2322 11.5252 18.2322C12.2367 18.2322 12.9306 17.9981 13.5114 17.5623C14.0922 17.1264 14.5312 16.5103 14.7679 15.7987H18.4002V13.3681H14.7679C14.5309 12.657 14.0917 12.0413 13.5109 11.606C12.9302 11.1707 12.2364 10.9372 11.5252 10.9376ZM10.3794 14.5834C10.3794 14.2611 10.5001 13.952 10.715 13.7241C10.9299 13.4961 11.2213 13.3681 11.5252 13.3681C11.8291 13.3681 12.1206 13.4961 12.3355 13.7241C12.5503 13.952 12.6711 14.2611 12.6711 14.5834C12.6711 14.9057 12.5503 15.2148 12.3355 15.4427C12.1206 15.6706 11.8291 15.7987 11.5252 15.7987C11.2213 15.7987 10.9299 15.6706 10.715 15.4427C10.5001 15.2148 10.3794 14.9057 10.3794 14.5834Z" fill="black"/>
</g>
<defs>
<clipPath id="clip0_2442_1370">
<rect width="18.3333" height="19.4444" fill="white" transform="translate(0.0668945)"/>
</clipPath>
</defs>
</svg>
